<svg width="15" height="17" viewBox="0 0 15 17" fill="none" xmlns="http://www.w3.org/2000/svg">
<path d="M1 2C1 1.44772 1.44772 1 2 1H8.34483C8.89711 1 9.34483 1.44772 9.34483 2V10.931C9.34483 11.4833 8.89711 11.931 8.34483 11.931H2C1.44772 11.931 1 11.4833 1 10.931V2Z" stroke="#41425C" stroke-width="2"/>
<path d="M5.65515 5.10352C5.65515 4.55123 6.10287 4.10352 6.65515 4.10352H13C13.5523 4.10352 14 4.55123 14 5.10352V14.0346C14 14.5868 13.5523 15.0346 13 15.0346H6.65515C6.10287 15.0346 5.65515 14.5868 5.65515 14.0346V5.10352Z" fill="white" stroke="#41425C" stroke-width="2"/>
</svg>
