<svg width="22" height="33" viewBox="0 0 22 33" fill="none" xmlns="http://www.w3.org/2000/svg">
<path d="M16.5 26H5.5V29.5633C5.5 30.1568 5.76365 30.7197 6.21963 31.0997L7.94373 32.5364C8.30316 32.836 8.75623 33 9.2241 33H13.1716C13.702 33 14.2107 32.7893 14.5858 32.4142L15.9142 31.0858C16.2893 30.7107 16.5 30.202 16.5 29.6716V26Z" fill="#41425C"/>
<path d="M5.5 24H10.5H16.5V22L18.5097 19.9903C19.1667 19.3333 19.7289 18.5879 20.1802 17.7757L20.7416 16.7652C21.5669 15.2796 22 13.6082 22 11.9087V10.868C22 8.99376 21.4733 7.15729 20.48 5.56797L20.4402 5.50438C19.8183 4.50923 19.026 3.63132 18.0997 2.91085L17.7083 2.60648C15.953 1.24122 13.7927 0.5 11.5689 0.5H11H10.7574C8.33512 0.5 5.99522 1.37918 4.17231 2.97423L3.78728 3.31113C3.26386 3.76913 2.78964 4.28048 2.37233 4.83689L2 5.33333C0.701779 7.0643 0 9.16963 0 11.3333V11.4722C0 13.4465 0.584381 15.3766 1.6795 17.0192L3 19L5.5 22V24Z" fill="#41425C"/>
<path d="M3.95513 9.76922L3.74323 11.0406C3.62838 11.7297 4.25761 12.3106 4.93535 12.1412C5.2829 12.0543 5.55427 11.7829 5.64116 11.4354L5.88799 10.448C5.96211 10.1516 6.08665 9.87002 6.25617 9.61574L7.37983 7.93026C7.78623 7.32065 8.34469 6.82765 9 6.5L10 6H10.5C11.0523 6 11.5 5.55228 11.5 5C11.5 4.44772 11.0523 4 10.5 4H9.5L8.86015 4.21328C8.29135 4.40288 7.7613 4.69323 7.29529 5.07048L6.61059 5.62476C6.30266 5.87404 6.02545 6.15903 5.78479 6.47374L5 7.5L4.12206 9.25588C4.04114 9.41772 3.98488 9.59074 3.95513 9.76922Z" fill="white" fill-opacity="0.95"/>
</svg>
