<svg width="28" height="31" viewBox="0 0 28 31" fill="none" xmlns="http://www.w3.org/2000/svg">
<path d="M23.6716 31H4.23985C3.76243 31 3.30075 30.8292 2.93827 30.5185L0.698417 28.5986C0.255125 28.2187 0 27.664 0 27.0801V17.2241C0 16.7562 0.164032 16.3032 0.463557 15.9437L1.90031 14.2196C2.28029 13.7636 2.84319 13.5 3.43675 13.5H5V7.32843C5 6.79799 5.21071 6.28929 5.58579 5.91421L10.4142 1.08579C10.7893 0.710714 11.298 0.5 11.8284 0.5H15.6716C16.202 0.5 16.7107 0.710714 17.0858 1.08579L21.9142 5.91421C22.2893 6.28929 22.5 6.79799 22.5 7.32843V14H24.1716C24.702 14 25.2107 14.2107 25.5858 14.5858L26.9142 15.9142C27.2893 16.2893 27.5 16.798 27.5 17.3284V27.1716C27.5 27.702 27.2893 28.2107 26.9142 28.5858L25.0858 30.4142C24.7107 30.7893 24.202 31 23.6716 31Z" fill="#41425C"/>
<path d="M18.5 13.5H9.5V7.91421C9.5 7.649 9.60536 7.39464 9.79289 7.20711L12.2071 4.79289C12.3946 4.60536 12.649 4.5 12.9142 4.5H15.0858C15.351 4.5 15.6054 4.60536 15.7929 4.79289L18.2071 7.20711C18.3946 7.39464 18.5 7.649 18.5 7.91421V13.5Z" fill="white"/>
</svg>
