<svg width="43" height="31" viewBox="0 0 43 31" fill="none" xmlns="http://www.w3.org/2000/svg">
<path d="M32.92 31H10.56L9.14251 28.6375C9.04926 28.4821 9 28.3043 9 28.123V24.0112C9 23.821 9.05423 23.6348 9.15634 23.4743L12.3453 18.4631C12.5288 18.1747 12.847 18 13.1889 18H18.36V19.04H24.6V18H29.8461C30.1461 18 30.4301 18.1346 30.6201 18.3668L34.774 23.4437C34.9201 23.6224 35 23.8461 35 24.077V28.0492C35 28.2763 34.9227 28.4966 34.7809 28.6739L32.92 31Z" fill="#41425C"/>
<path d="M7 20.7515V22.5C7 23.0523 6.55228 23.5 6 23.5H0.5V17C0.5 16.4477 0.947715 16 1.5 16H9.39812C9.82769 16 10.0573 16.506 9.7744 16.8293L7.49485 19.4345C7.17584 19.799 7 20.267 7 20.7515Z" fill="#41425C"/>
<path d="M36 20.7515V22.5C36 23.0523 36.4477 23.5 37 23.5H42.5V17C42.5 16.4477 42.0523 16 41.5 16H33.6019C33.1723 16 32.9427 16.506 33.2256 16.8293L35.5052 19.4345C35.8242 19.799 36 20.267 36 20.7515Z" fill="#41425C"/>
<circle cx="7" cy="10" r="4" fill="#41425C"/>
<circle cx="22" cy="8" r="8" fill="#41425C"/>
<circle cx="4" cy="4" r="4" transform="matrix(-1 0 0 1 40 6)" fill="#41425C"/>
</svg>
